# xmcd CD database file
#
# Track frame offsets:
#	150
#	12787
#	25665
#	38452
#	51667
#	66012
#	80390
#	93402
#	107162
#	120895
#	133882
#	145977
#	159562
#	172345
#	186405
#	200777
#	212147
#	224715
#	236162
#	248070
#	260792
#	274372
#	288532
#	299437
#	311662
#
# Disc length: 4344 seconds
#
# Revision: 0
# Processed by: cddbd v1.4PL0 Copyright (c) Steve Scherf et al.
# Submitted via: CDex 1.50beta9
#
DISCID=9310f619
DTITLE=Chick Bullock - The Essential Chick Bullock
DYEAR=2002
DGENRE=Jazz
TTITLE0=Underneath the Harlem Moon
TTITLE1=Mighty River
TTITLE2=(When It's) Darkness on the Delta
TTITLE3=Any Time, Any Day, Anywhere
TTITLE4=Going, Going, Gone
TTITLE5=Low Down upon the Harlem River
TTITLE6=No One Loves Me Like That Dallas Man
TTITLE7=Extra (All About That Gal of Mine)
TTITLE8=Frankie and Johnnie
TTITLE9=I Can't Dance (I Got Ants  in my Pants)
TTITLE10=Somebody Loves Me
TTITLE11=I'm an Old Cowhand
TTITLE12=Smiles
TTITLE13=It Had to Be You
TTITLE14=My Melancholy Baby
TTITLE15=(Back Home Again in) Indiana
TTITLE16=Dolores
TTITLE17=Amapola (Pretty Little Poppy)
TTITLE18=Oh, How I Hate to Get Up in the Morning
TTITLE19=There'll Be Some Changes Made
TTITLE20=It Had to Be You
TTITLE21=My Melancholy Baby
TTITLE22=(Back Home Again In) Indiana
TTITLE23=Oh, How I Hat to Get Up in the Morning
TTITLE24=My Melancholy Baby
EXTD=YEAR: 2002
EXTT0=
EXTT1=
EXTT2=
EXTT3=
EXTT4=
EXTT5=
EXTT6=
EXTT7=
EXTT8=
EXTT9=
EXTT10=
EXTT11=
EXTT12=
EXTT13=
EXTT14=
EXTT15=
EXTT16=
EXTT17=
EXTT18=
EXTT19=
EXTT20=
EXTT21=
EXTT22=
EXTT23=
EXTT24=
PLAYORDER=
